<?xml version="1.0" standalone="no"?>
<!DOCTYPE svg PUBLIC "-//W3C//DTD SVG 20010904//EN"
 "http://www.w3.org/TR/2001/REC-SVG-20010904/DTD/svg10.dtd">
<svg version="1.0" xmlns="http://www.w3.org/2000/svg"
 width="592.000000pt" height="592.000000pt" viewBox="0 0 592.000000 592.000000"
 preserveAspectRatio="xMidYMid meet">
<metadata>
Created by potrace 1.14, written by Peter Selinger 2001-2017
</metadata>
<g transform="translate(0.000000,592.000000) scale(0.100000,-0.100000)"
fill="#000000" stroke="none">
<path d="M2708 5915 c-1 -1 -37 -6 -78 -9 -41 -3 -84 -7 -95 -10 -11 -2 -42
-7 -68 -10 -27 -4 -59 -9 -70 -12 -12 -2 -35 -6 -52 -8 -16 -3 -66 -14 -110
-26 -44 -11 -89 -23 -100 -25 -28 -6 -194 -61 -230 -76 -16 -7 -36 -13 -43
-15 -36 -7 -282 -129 -396 -196 -86 -51 -250 -163 -282 -193 -6 -5 -28 -23
-49 -40 -96 -75 -287 -260 -277 -269 3 -3 -2 -6 -11 -6 -9 0 -17 -3 -17 -7 0
-5 -15 -24 -33 -44 -17 -19 -44 -51 -58 -70 -15 -18 -36 -45 -48 -58 -11 -13
-21 -27 -21 -30 0 -3 -10 -17 -23 -31 -12 -14 -50 -68 -85 -120 -34 -52 -66
-100 -70 -105 -4 -6 -18 -30 -31 -55 -13 -25 -31 -53 -39 -62 -8 -10 -12 -18
-8 -18 3 0 -5 -18 -19 -40 -14 -22 -25 -41 -25 -44 0 -2 -22 -51 -50 -109 -27
-58 -50 -109 -50 -112 0 -4 -6 -21 -14 -38 -16 -34 -75 -201 -82 -229 -2 -10
-6 -26 -9 -35 -24 -84 -76 -296 -80 -328 -3 -22 -8 -51 -10 -65 -12 -79 -20
-255 -20 -470 0 -215 4 -306 21 -439 6 -45 29 -180 49 -281 17 -87 96 -334
137 -430 10 -25 23 -54 27 -65 21 -50 106 -222 117 -235 7 -8 13 -19 14 -25 8
-44 307 -481 359 -525 4 -3 26 -30 51 -60 50 -61 290 -296 290 -284 0 3 10 -5
23 -16 52 -50 369 -260 392 -260 2 0 27 -13 55 -30 27 -16 50 -28 50 -25 0 2
35 -12 78 -31 116 -54 144 -65 222 -90 30 -9 72 -23 92 -30 56 -20 296 -75
398 -90 19 -3 46 -7 60 -10 73 -14 181 -19 425 -19 332 0 547 14 708 46 29 6
64 12 80 14 15 2 31 6 36 9 4 3 23 8 42 11 58 10 274 76 311 96 10 5 22 9 28
9 20 0 377 173 390 189 3 3 21 14 40 24 40 20 254 173 326 232 66 55 321 310
364 364 19 24 40 49 45 55 6 6 30 38 54 71 25 33 47 62 51 65 11 9 127 184
175 264 92 153 127 227 114 242 -6 8 -15 12 -19 9 -5 -3 -12 -1 -15 5 -4 6
-38 26 -76 45 -79 40 -92 54 -23 24 44 -18 47 -19 60 -2 7 10 16 27 20 38 3
11 16 43 29 70 43 96 117 349 139 480 3 14 7 33 10 43 2 9 7 37 10 62 4 25 8
57 11 71 5 29 13 120 21 258 2 52 10 101 16 108 11 13 5 335 -8 438 -20 161
-81 436 -129 580 -64 195 -201 510 -255 585 -12 16 -19 30 -16 30 4 0 -103
166 -125 194 -5 6 -39 49 -75 96 -37 47 -77 96 -89 110 -57 65 -286 291 -335
330 -30 25 -57 47 -60 50 -3 3 -21 17 -40 30 -19 13 -37 27 -40 30 -9 12 -155
107 -240 156 -143 83 -329 168 -470 214 -123 40 -196 62 -215 66 -11 2 -40 8
-65 14 -51 12 -75 17 -145 30 -92 18 -110 20 -190 30 -44 6 -98 13 -120 16
-42 6 -531 15 -537 9z m2782 -4117 c0 -6 -6 -5 -15 2 -8 7 -15 14 -15 16 0 2
7 1 15 -2 8 -4 15 -11 15 -16z m-4240 -298 c0 -5 -2 -10 -4 -10 -3 0 -8 5 -11
10 -3 6 -1 10 4 10 6 0 11 -4 11 -10z m1880 -830 c-8 -5 -19 -10 -25 -10 -5 0
-3 5 5 10 8 5 20 10 25 10 6 0 3 -5 -5 -10z m-130 -4 c0 -2 -7 -7 -16 -10 -8
-3 -12 -2 -9 4 6 10 25 14 25 6z"/>
</g>
</svg>
